# xmcd CD database file
#
# Track frame offsets:
#	150
#	16243
#	32924
#	50042
#	68960
#	93354
#	112568
#	135614
#	162859
#	214964
#	236684
#	250248
#	264723
#	277556
#	300616
#	328749
#
# Disc length: 4594 seconds
#
# Revision: 0
# Processed by: cddbd v1.5.2PL0 Copyright (c) Steve Scherf et al.
# Submitted via: CDex 1.70beta2
#
DISCID=db11f010
DTITLE=Artisti Vari - May It Be
DYEAR=1900
DGENRE=New Age
TTITLE0=Enya - May it be
TTITLE1=Enya - Only Time
TTITLE2=Enya - Pure Moods. Sail Away
TTITLE3=Enya - Return To Innocence. Enigma
TTITLE4=Enya - Adiemus
TTITLE5=Hans Zimmer and Lisa Gerrard - Now We Are Free
TTITLE6=Quincy Jones-1989-Sarah Vaughan,Take6,George Benson,Herbie Hancock,George Duke,Gerald
TTITLE7=Merlin's Magic - Heart Chakra
TTITLE8=Tibetan - Meditation Bells
TTITLE9=Enya - Celtic Moon
TTITLE10=Musica etnica Oriental. Tai Chi Music II
TTITLE11=New Age. Sounds of Nature. Relaxing. Wind In The Trees
TTITLE12=Enya and Clannad - Robin Hood
TTITLE13=Merlin's Magic - Throat Chakra
TTITLE14=Enya - Last Of The Mohicans. Proment
TTITLE15=Enya - X-Files Theme
EXTD=
EXTT0=
EXTT1=
EXTT2=
EXTT3=
EXTT4=
EXTT5=
EXTT6=
EXTT7=
EXTT8=
EXTT9=
EXTT10=
EXTT11=
EXTT12=
EXTT13=
EXTT14=
EXTT15=
PLAYORDER=
